<?xml version="1.0" encoding="UTF-8" standalone="no"?>
<!DOCTYPE svg PUBLIC "-//W3C//DTD SVG 20010904//EN" "http://www.w3.org/TR/2001/REC-SVG-20010904/DTD/svg10.dtd">
<svg version="1.0" xmlns="http://www.w3.org/2000/svg" width="1129.000000pt" height="1280.000000pt" viewBox="0 0 1129.000000 1280.000000" preserveAspectRatio="xMidYMid meet">
<metadata>
Created by potrace 1.15, written by Peter Selinger 2001-2017
</metadata>
<g transform="translate(0.000000,1280.000000) scale(0.100000,-0.100000)" fill="#000000" stroke="none">
<path d="M2880 12590 c-748 -71 -1401 -462 -1821 -1090 -81 -121 -204 -365 -253 -500 -49 -136 -99 -335 -123 -480 -14 -91 -18 -169 -17 -370 0 -229 3 -270 27 -400 114 -635 449 -1176 962 -1555 130 -96 368 -235 403 -235 24 0 62 187 -418 -2065 -67 -313 -148 -694 -180 -845 -32 -151 -91 -426 -130 -610 -39 -184 -98 -459 -130 -610 -32 -151 -113 -531 -180 -845 -67 -313 -148 -694 -180 -845 -57 -269 -141 -661 -261 -1225 -33 -154 -62 -293 -65 -310 -4 -28 -4 -29 5 -5 5 14 55 176 111 360 56 184 183 601 282 925 99 325 211 694 250 820 38 127 118 390 178 585 60 195 141 461 180 590 39 129 120 395 180 590 60 195 181 592 269 883 89 290 233 764 322 1055 88 290 210 689 270 887 60 198 114 372 119 388 26 73 33 88 39 78 24 -38 500 -47 726 -12 531 80 1005 320 1378 696 192 193 324 376 448 620 117 232 190 461 236 740 27 167 25 564 -5 735 -90 521 -309 957 -668 1327 -379 390 -875 636 -1439 713 -110 15 -400 21 -515 10z"/>
</g>
</svg>